<?xml version="1.0" encoding="iso-8859-1"?>
<!-- Generator: Adobe Illustrator 16.0.0, SVG Export Plug-In . SVG Version: 6.00 Build 0)  -->
<!DOCTYPE svg PUBLIC "-//W3C//DTD SVG 1.1//EN" "http://www.w3.org/Graphics/SVG/1.1/DTD/svg11.dtd">
<svg version="1.1" id="Capa_1" xmlns="http://www.w3.org/2000/svg" xmlns:xlink="http://www.w3.org/1999/xlink" x="0px" y="0px"
	 width="80px" height="80px" viewBox="0 0 53.661 53.662" style="enable-background:new 0 0 53.661 53.662;"
	 xml:space="preserve">
<g>
	<path d="M46.533,14.955c0,0-12.378-0.118-19.156,0.771c-7.593,0.953-18.793,3.788-18.793,3.788
		c-2.481,1.146-4.188,2.513-3.894,4.958l2.138,17.801c0.044,0.365,0.141,0.688,0.262,0.992c-0.766-0.096-1.794-0.468-1.909-1.76
		L2.89,22.47c-0.228-1.891,0.747-3.138,2.349-4.136c0.825-0.514,2.318-1.014,3.263-1.243c3.426-0.825,11.301-2.641,17.084-3.367
		c6.777-0.889,19.156-0.771,19.156-0.771c0.53,0.008,0.937,0.041,1.288,0.104c0.702,0.127,1.178-0.427,0.643-1.239
		c-0.576-0.875-1.519-1.442-2.668-1.824c-0.923-0.307-2.496-0.431-3.468-0.43c-3.661,0.005-12.185,0.092-17.396,0.776
		c-1.319,0.165-3.168-3.108-4.628-2.854C13.576,8.347,8.282,9.574,5.637,10.211c-0.945,0.228-2.439,0.729-3.264,1.243
		c-1.598,0.998-2.567,2.243-2.34,4.133l3.244,27.006c0,0-0.321,3.06,8.286,3.522c0.076,0.015,0.148,0.034,0.224,0.047
		c0,0,11.792,0.229,19.169-0.656c7.375-0.887,18.78-3.9,18.78-3.9c2.383-1.053,4.188-2.514,3.894-4.958l-2.138-17.801
		C51.198,16.405,49.126,15.429,46.533,14.955z"/>
</g>
<g>
</g>
<g>
</g>
<g>
</g>
<g>
</g>
<g>
</g>
<g>
</g>
<g>
</g>
<g>
</g>
<g>
</g>
<g>
</g>
<g>
</g>
<g>
</g>
<g>
</g>
<g>
</g>
<g>
</g>
</svg>
